<svg xmlns="http://www.w3.org/2000/svg" width="1024" height="1024"><metadata></metadata>
<defs>
<linearGradient id="grad21" x1="498.599" y1="240.186" x2="433.072" y2="502.114" gradientUnits="userSpaceOnUse">
<stop offset="0%" style="stop-color: rgb(27, 81, 131);" />
<stop offset="100%" style="stop-color: rgb(23, 54, 112);" />
</linearGradient>
</defs>
<defs>
</defs>
<path d="M491.5,93 C627.471,87.9408 747.06,145.354 834,247.5 C842.67,257.686 850.448,270.656 859,280.5 C861.068,282.88 863.351,281.485 864,282.5 C858.155,289.898 851.537,296.401 849.5,306 C842.722,297.604 858.286,288.188 858,285.5 C857.661,282.316 822.961,240.924 818,235.5 C597.141,-5.96785 206.087,83.3824 112,394.5 C109.544,402.62 106.74,425.219 104,430.5 C102.743,432.923 101.901,433.95 99,432.5 C133.748,245.886 301.323,100.076 491.5,93 Z " fill="rgb(245,174,60)"/>
<path d="M49.5,94 C78.1822,87.5878 80.8014,127.057 58.5,130 C33.4936,133.299 30.3793,98.2747 49.5,94 Z " fill="rgb(242,179,69)"/>
<path d="M507.5,108 C647.864,107.077 768.884,178.456 849,290.5 C849.344,295.012 839.645,284.193 839,283.5 C821.708,264.93 807.379,244.101 788.5,226 C713.697,154.281 617.193,112.426 512.5,112 C289.247,111.092 108.603,294.026 110,516.5 C110.356,518.206 108.664,518.362 107.5,518 C105.948,517.518 106.826,488.865 107,485.5 C117.827,276.576 299.635,109.367 507.5,108 Z " fill="rgb(245,173,60)"/>
<path d="M908.5,108 C936.329,103.574 936.993,142.404 915.5,145 C890.37,148.035 886.442,111.508 908.5,108 Z " fill="rgb(33,79,159)"/>
<path d="M733.5,118 C767.651,120.298 800.376,117.168 832.5,131 C868.78,146.622 903.31,185.254 916,222.5 C917.544,227.033 924.769,255.893 924,258.5 C920.907,268.992 917.295,241.572 917,240.5 C900.656,181.179 855.267,130.941 791.5,124 C775.669,122.277 754.961,125.088 739.5,123 C736.867,122.644 729.047,121.683 733.5,118 Z " fill="rgb(245,175,61)"/>
<path d="M460.5,126 C462.076,125.893 489.067,125.62 479.5,129 C473.38,131.162 450.649,131.253 441.5,133 C272.736,165.224 144.778,309.515 127,479.5 C126.286,486.322 127.333,508.491 126,512.5 C125.82,513.04 123.169,515.544 122.5,515 C119.775,351.496 229.657,201.53 381.5,146 C403.228,138.054 437.771,127.538 460.5,126 Z " fill="rgb(244,173,60)"/>
<path d="M103.5,127 C163.289,128.122 223.351,124.444 283,129.5 C283,129.5 191.5,131 191.5,131 C191.5,131 103.5,127 103.5,127 Z " fill="rgb(29,83,183)"/>
<path d="M760.5,134 C761.845,133.607 785.588,134.68 788.5,135 C838.903,140.532 890.518,184.596 904,233.5 C905.124,237.576 912.383,265.077 904,260.5 C902.933,202.697 846.71,145.903 790.5,139 C786.878,138.555 756.36,140.72 758,135.5 C758.808,135.384 760.065,134.127 760.5,134 Z " fill="rgb(245,173,61)"/>
<path d="M482.5,141 C557.395,136.46 667.864,161.144 726.5,210 C729.775,212.729 735.715,215.979 730.5,219 C541.542,76.6649 273.501,146.982 175,360.5 C168.969,373.572 165.414,389.46 160,401.5 C159.42,402.789 157.319,407.969 155,406.5 C193.944,262.401 333.184,150.051 482.5,141 Z " fill="rgb(244,173,60)"/>
<path d="M258.5,143 C258.5,143 254.5,147 254.5,147 C254.5,147 87,145.5 87,145.5 C87,145.5 258.5,143 258.5,143 Z " fill="rgb(32,88,182)"/>
<path d="M784.5,152 C792.047,149.459 822.742,161.633 830.5,166 C856.805,180.809 886.26,217.223 891,247.5 C891.483,250.584 892.688,267.843 888,257.5 C885.591,252.185 884.392,236.968 881,228.5 C868.334,196.882 836.59,169.325 804.5,159 C803.388,158.642 775.946,154.88 784.5,152 Z " fill="rgb(245,174,61)"/>
<path d="M490.5,157 C536.369,154.824 647.294,171.412 682.5,202 C686.439,205.423 685.927,207.27 680.5,206 C672.29,204.079 652.533,191.038 642.5,187 C412.951,94.6101 168.221,258.242 158,501.5 C158,501.5 155.5,504 155.5,504 C148.358,502.094 165.5,422.154 168,413.5 C209.006,271.538 342.089,164.04 490.5,157 Z " fill="rgb(245,174,61)"/>
<path d="M64.5,161 C121.63,161.982 178.945,159.018 236,162.5 C236,162.5 148.5,164 148.5,164 C148.5,164 64.5,161 64.5,161 Z " fill="rgb(29,87,186)"/>
<path d="M809.5,175 C825.385,180.43 840.091,191.865 851,204.5 C853.599,207.51 872.177,232.308 868.5,235 C855.632,218.263 845.769,201.87 828.5,189 C823.654,185.389 815.234,182.885 811.5,180 C810.421,179.166 806.717,176.578 809.5,175 Z " fill="rgb(246,175,61)"/>
<path d="M63.5,178 C63.5,178 139.5,178 139.5,178 C139.5,178 214,180.5 214,180.5 C214,180.5 138.5,181 138.5,181 C138.5,181 63.5,178 63.5,178 Z " fill="rgb(32,90,187)"/>
<path d="M702,314 C539.39,155.113 265.449,253.81 235,476 C219.597,480.821 203.98,486.148 188.5,490 C201.345,319.054 349.924,184.438 522.5,191 C608.42,194.267 689.79,235.859 748,297.5 C733.275,304.344 717.073,308.248 702,314 Z " fill="rgb(41,117,151)"/>
<path d="M64.5,195 C107.621,195.975 150.965,193.026 194,196.5 C194,196.5 127.5,198 127.5,198 C127.5,198 64.5,195 64.5,195 Z " fill="rgb(39,95,189)"/>
<path d="M64.5,212 C101.926,212.975 139.677,210.026 177,213.5 C177,213.5 119.5,215 119.5,215 C119.5,215 64.5,212 64.5,212 Z " fill="rgb(24,85,190)"/>
<path d="M68.5,229 C94.3779,224.898 133.029,231.163 160,230.5 C160,230.5 64.5,233 64.5,233 C64.5,233 63,230.5 63,230.5 C64.737,230.508 67.4913,229.16 68.5,229 Z " fill="rgb(28,86,187)"/>
<path d="M702,314 C701.728,314.104 699.588,316.02 697,317 C539.12,161.282 270.651,259.12 240,475 C238.468,475.488 236.178,475.631 235,476 C265.449,253.81 539.39,155.113 702,314 Z " fill="rgb(240,188,68)"/>
<path d="M697,317 C679.422,323.655 661.691,329.674 644,336 C633.826,329.545 625.209,311.73 615.5,306 C606.662,300.785 596.94,303.384 587.5,299 C581.062,296.011 564.977,277.875 559.5,277 C553.504,276.042 539.552,284.709 533.5,286 C515.1,289.924 500.517,271.61 486.5,274 C479.78,275.146 467.704,291.361 459.5,293 C448.338,295.23 429.473,288.098 419.5,291 C414.123,292.565 404.45,312.829 397.5,317 C385.201,324.381 362.149,319.397 355,333.5 C351.646,340.116 352.35,350.611 347,357.5 C339.117,367.65 312.5,370.877 310,385.5 C308.981,391.463 311.768,398.164 311,404.5 C308.47,425.369 268.118,431.986 285,458 C269.987,463.025 255.282,470.131 240,475 C270.651,259.12 539.12,161.282 697,317 Z " fill="url(#grad21)"/>
/>
<path d="M63.5,247 C69.5741,248.477 143.973,244.474 144,248.5 C144,248.5 103.5,250 103.5,250 C103.5,250 63.5,247 63.5,247 Z " fill="rgb(30,80,180)"/>
<path d="M745.5,249 C747.232,248.378 770.122,271.329 770.5,276 C766.905,273.727 744.393,254.227 744,252.5 C743.869,251.924 745.292,249.075 745.5,249 Z " fill="rgb(246,176,65)"/>
<path d="M63.5,264 C63.5,264 97.5,264 97.5,264 C97.5,264 130,266.5 130,266.5 C130,266.5 95.5,267 95.5,267 C95.5,267 63.5,264 63.5,264 Z " fill="rgb(37,93,183)"/>
<path d="M644,336 C642.568,336.512 640.957,337.303 639,338 C631.185,332.234 619.498,312.335 611.5,309 C604.358,306.022 594.706,307.755 586.5,304 C579.826,300.946 565.741,284.069 559.5,283 C551.341,281.602 537.828,291.196 530.5,292 C515.638,293.631 498.752,277.03 487.5,279 C482.295,279.911 468.817,296.547 461.5,298 C450.383,300.208 431.215,293.173 421.5,296 C417.14,297.269 406.624,318.158 399.5,322 C390.94,326.616 370.594,326.087 363.5,331 C356.493,335.853 357.139,352.469 351,360.5 C344.391,369.146 319.184,375.818 316,383.5 C313.187,390.288 316.261,401.365 315,408.5 C311.521,428.175 275.155,433.635 289,458 C287.993,458.337 286.008,457.663 285,458 C268.118,431.986 308.47,425.369 311,404.5 C311.768,398.164 308.981,391.463 310,385.5 C312.5,370.877 339.117,367.65 347,357.5 C352.35,350.611 351.646,340.116 355,333.5 C362.149,319.397 385.201,324.381 397.5,317 C404.45,312.829 414.123,292.565 419.5,291 C429.473,288.098 448.338,295.23 459.5,293 C467.704,291.361 479.78,275.146 486.5,274 C500.517,271.61 515.1,289.924 533.5,286 C539.552,284.709 553.504,276.042 559.5,277 C564.977,277.875 581.062,296.011 587.5,299 C596.94,303.384 606.662,300.785 615.5,306 C625.209,311.73 633.826,329.545 644,336 Z " fill="rgb(243,189,64)"/>
<path d="M639,338 C522.968,379.352 405.809,418.876 289,458 C275.155,433.635 311.521,428.175 315,408.5 C316.261,401.365 313.187,390.288 316,383.5 C319.184,375.818 344.391,369.146 351,360.5 C357.139,352.469 356.493,335.853 363.5,331 C370.594,326.087 390.94,326.616 399.5,322 C406.624,318.158 417.14,297.269 421.5,296 C431.215,293.173 450.383,300.208 461.5,298 C468.817,296.547 482.295,279.911 487.5,279 C498.752,277.03 515.638,293.631 530.5,292 C537.828,291.196 551.341,281.602 559.5,283 C565.741,284.069 579.826,300.946 586.5,304 C594.706,307.755 604.358,306.022 611.5,309 C619.498,312.335 631.185,332.234 639,338 Z " fill="rgb(22,39,100)"/>
<path d="M65.5,281 C67.9,280.298 113.037,281.446 115.5,282 C116.688,282.267 119.89,282.213 118,284.5 C116.296,286.562 66.9994,285.953 64.5,285 C61.8564,283.991 63.1588,281.685 65.5,281 Z " fill="rgb(37,93,186)"/>
<path d="M792,313 C792,313 792.5,311 792.5,311 C744.492,338.503 700.908,374.957 655.5,407 C541.124,487.71 425.896,567.758 310.5,647 C300.346,653.973 289.269,662.09 278,667 C267.408,648.227 257.206,629.105 245.5,611 C245.5,611 258.5,607 258.5,607 C258.5,607 742.5,315 742.5,315 C699.045,334.251 657.705,358.364 616.5,382 C489.458,454.873 364.883,533.653 239.5,609 C169.963,591.668 101.38,569.459 31,556.5 C294.482,464.957 560.585,377.923 822.5,281 C822.5,281 641.5,763 641.5,763 C641.5,763 409,689.5 409,689.5 C520.291,587.882 623.979,478.481 731.5,373 C739.237,365.41 791.894,318.352 792,313 Z " fill="rgb(31,77,154)"/>
<path d="M920.5,292 C947.778,286.876 940.819,329.63 917.5,320 C905.644,315.104 907.442,294.453 920.5,292 Z " fill="rgb(33,79,159)"/>
<path d="M67.5,299 C71.0073,298.336 102.332,298.285 105.5,299 C106.684,299.267 109.892,299.211 108,301.5 C106.407,303.428 67.9352,303.954 63,301.5 C62.5587,300.2 66.8496,299.123 67.5,299 Z " fill="rgb(24,84,185)"/>
<path d="M835.5,305 C843.251,322.874 855.736,339.236 864,357.5 C975.38,603.654 785.905,892.89 519.5,896 C532.328,889.952 550.702,891.398 565.5,889 C820.181,847.721 971.033,569.758 849,336.5 C844.581,328.053 829.348,312.864 835.5,305 Z " fill="rgb(244,173,61)"/>
<path d="M792,313 C771.847,326.867 753.647,343.616 735.5,360 C614.952,468.836 499.366,583.422 379,692.5 C368.461,730.362 359.717,770.388 357.5,810 C332.295,761.612 304.792,714.485 278,667 C289.269,662.09 300.346,653.973 310.5,647 C425.896,567.758 541.124,487.71 655.5,407 C700.908,374.957 744.492,338.503 792.5,311 C792.5,311 792,313 792,313 Z " fill="rgb(10,4,81)"/>
<path d="M898.5,311 C902.079,320.143 887.366,328.791 888,334.5 C888.266,336.898 895.673,348.965 897,352.5 C913.302,395.937 925.407,444.834 927,491.5 C927.06,493.271 927.304,535.389 923,522.5 C921.61,518.338 923.387,498.976 923,492.5 C920.766,455.164 909.021,379.263 890,347.5 C888.403,344.833 873.548,327.219 871,336.5 C870.597,337.966 883.208,358.946 885,363.5 C898.056,396.685 909.076,440.844 911,476.5 C911.284,481.764 911.934,512.821 911,515.5 C910.345,517.379 907.655,517.379 907,515.5 C906.325,513.564 907.55,481.057 907,474.5 C904.063,439.51 894.254,397.011 881,364.5 C878.811,359.131 865.137,336.195 865,334.5 C864.711,330.918 880.295,332.468 885.5,330 C890.787,327.493 896.861,316.759 898.5,311 Z " fill="rgb(245,176,65)"/>
<path d="M63.5,317 C64.9517,316.216 94.2436,316.492 96.5,317 C97.6877,317.267 100.89,317.213 99,319.5 C97.9011,320.83 66.135,320.55 64.5,320 C62.4528,319.311 62.2939,317.652 63.5,317 Z " fill="rgb(40,95,190)"/>
<path d="M63.5,335 C63.5,335 90,336.5 90,336.5 C88.843,339.668 57.0102,338.252 63.5,335 Z " fill="rgb(32,82,183)"/>
<path d="M817.5,339 C820.06,339.048 837.311,379.666 841,384.5 C841,384.5 838.5,387 838.5,387 C838.5,387 836,385.5 836,385.5 C835.172,375.064 817.069,351.828 816,344.5 C815.808,343.183 815.937,338.971 817.5,339 Z " fill="rgb(245,175,65)"/>
<path d="M64.5,352 C80.1944,346.91 93.7238,360.141 64.5,355 C62.882,354.117 62.8477,352.536 64.5,352 Z " fill="rgb(39,98,188)"/>
<path d="M65.5,369 C76.2311,365.219 80.1581,376.084 64.5,372 C63.1394,371.268 64.7435,369.267 65.5,369 Z " fill="rgb(39,93,181)"/>
<path d="M419,771 C475.738,791.994 541.124,790.913 598,771 C603.376,772.619 636.83,782.873 639.5,783 C657.058,783.837 668.628,743.98 674,730 C760.03,668.385 801.26,556.304 780,452.5 C779.562,450.36 779.335,446.003 776,447 C783.517,426.824 789.668,404.055 798,384.5 C798.455,383.431 800.363,377.216 802,378.5 C849.722,489.61 835.519,613.93 760,708.5 C670.912,820.062 519.588,862.296 386.5,806 C396.269,793.406 408.217,782.66 419,771 Z " fill="rgb(41,117,151)"/>
<path d="M64.5,386 C70.7692,383.832 70.7507,392.173 64.5,390 C62.6211,389.347 62.6226,386.649 64.5,386 Z " fill="rgb(30,85,182)"/>
<path d="M88.5,435 C114.347,430.558 114.263,466.239 96.5,470 C73.5858,474.852 66.5899,438.766 88.5,435 Z " fill="rgb(242,179,70)"/>
<path d="M674,730 C675.014,727.361 675.991,724.648 677,722 C758.448,658.511 796.717,551.478 775,450 C775.347,449.067 775.633,447.985 776,447 C779.335,446.003 779.562,450.36 780,452.5 C801.26,556.304 760.03,668.385 674,730 Z " fill="rgb(239,189,63)"/>
<path d="M677,722 C688.309,692.326 697.55,662.39 710,633 C716.522,628.564 717.764,622.197 719,615 C728.427,560.087 755.244,503.108 775,450 C796.717,551.478 758.448,658.511 677,722 Z " fill="rgb(23,40,101)"/>
<path d="M857.5,458 C862.284,461.489 862.485,475.017 863,481.5 C880.516,702.161 691.097,885.301 471.5,863 C460.172,861.85 383.383,847.178 381,839.5 C380.424,837.643 380.802,837.407 382.5,837 C384.699,836.473 418.718,849.426 425.5,851 C652.698,903.737 862.89,732.288 860,500.5 C859.825,486.447 856.257,472.071 857.5,458 Z " fill="rgb(244,173,61)"/>
<path d="M874.5,547 C876.876,545.194 876.728,548.318 877,549.5 C880.904,566.461 857.965,638.048 850,656.5 C773.844,832.93 567.748,926.693 385,859.5 C384.81,854.558 423.331,867.35 426.5,868 C630.507,909.859 826.334,786.825 869,582.5 C870.017,577.63 873.07,548.087 874.5,547 Z " fill="rgb(244,173,59)"/>
<path d="M916.5,554 C943.575,549.67 945.09,587.096 923.5,590 C899.788,593.189 895.099,557.422 916.5,554 Z " fill="rgb(242,180,70)"/>
<path d="M901.5,587 C903.688,603.53 896.361,624.614 891,640.5 C854.544,748.528 764.027,841.669 658.5,884 C432.006,974.856 174.315,842.208 119,606.5 C87.2727,622.468 102.697,603.93 122,603.5 C184.776,867.106 487.578,991.751 720.5,848 C812.794,791.04 879.262,693.101 901.5,587 Z " fill="rgb(245,174,60)"/>
<path d="M106.5,594 C106.5,594 115,597.5 115,597.5 C113.102,598.165 102.254,597.34 106.5,594 Z " fill="rgb(244,167,54)"/>
<path d="M915.5,594 C915.969,594.738 917.904,596.014 918,596.5 C919.654,604.841 898.775,663.325 894,674.5 C858.873,756.708 790.567,832.348 711.5,874 C708.719,872.337 712.354,869.999 713.5,869 C721.123,862.357 738.121,854.712 747.5,848 C832.985,786.827 892.59,696.956 915.5,594 Z " fill="rgb(245,174,60)"/>
<path d="M150.5,603 C152.205,602.148 158.323,614.907 159,616.5 C161.961,623.471 170.518,646.789 172,653.5 C172.465,655.606 173.716,657.575 171.5,659 C171.5,659 150.5,603 150.5,603 Z " fill="rgb(245,177,67)"/>
<path d="M719,615 C717.764,622.197 716.522,628.564 710,633 C712.371,627.403 714.891,619.428 719,615 Z " fill="rgb(249,201,77)"/>
<path d="M208.5,623 C215.157,624.026 231.334,622.495 236,626.5 C236,626.5 311.5,762 311.5,762 C266.754,724.91 227.486,678.734 208.5,623 Z " fill="rgb(42,117,152)"/>
<path d="M178.5,634 C181.54,633.7 203.138,680.929 207,687.5 C219.18,708.221 237.612,732.918 254,750.5 C259.392,756.284 290.811,782.547 291.5,785 C293.816,793.248 276.436,777.656 274.5,776 C241.697,747.931 191.815,681.545 179,640.5 C178.725,639.619 176.442,634.203 178.5,634 Z " fill="rgb(245,175,64)"/>
<path d="M118.5,649 C128.113,667.792 135.047,687.858 145,706.5 C208.887,826.164 332.282,908.355 467.5,922 C473.794,922.635 494.626,921.696 498.5,923 C510.371,926.995 478.971,927.057 477.5,927 C347.667,921.985 214.837,834.008 150,723.5 C144.281,713.753 117.278,661.271 117,653.5 C116.93,651.542 116.657,650.261 118.5,649 Z " fill="rgb(245,175,61)"/>
<path d="M182.5,674 C190.043,681.844 196.515,696.612 193.5,707 C193.5,707 182.5,674 182.5,674 Z " fill="rgb(246,176,63)"/>
<path d="M88.5,697 C110.434,693.607 112.687,725.04 94.5,727 C72.8307,729.336 71.8592,699.574 88.5,697 Z " fill="rgb(32,78,158)"/>
<path d="M385.5,703 C385.5,703 441,721.5 441,721.5 C441,721.5 360.5,807 360.5,807 C360.5,807 385.5,703 385.5,703 Z " fill="rgb(10,5,80)"/>
<path d="M907.5,719 C914.319,720.034 925.277,717.599 931.5,719 C946.934,722.475 898.204,723.653 907.5,719 Z " fill="rgb(34,83,185)"/>
<path d="M495,737 C481.313,743.475 467.788,738.247 455,732 C455.966,731.167 458.389,727.266 459.5,727 C471.582,728.399 483.274,733.574 495,737 Z " fill="rgb(21,37,102)"/>
<path d="M495,737 C497.462,737.719 499.463,738.841 500,739 C484.591,750.343 467.421,743.566 452,736 C453.146,734.912 453.702,733.12 455,732 C467.788,738.247 481.313,743.475 495,737 Z " fill="rgb(238,189,62)"/>
<path d="M500,739 C530.892,748.157 561.244,758.584 592,768 C537.09,786.16 477.114,785.159 422,768 C432.035,757.151 441.223,746.231 452,736 C467.421,743.566 484.591,750.343 500,739 Z " fill="rgb(23,40,101)"/>
<path d="M888.5,749 C888.5,749 937,750.5 937,750.5 C937.017,752.876 891.741,752.79 889.5,752 C888.748,751.735 887.125,749.688 888.5,749 Z " fill="rgb(36,95,188)"/>
<path d="M98.5,756 C101.227,753.792 107.049,786.493 108,789.5 C126.202,847.042 173.202,891.114 234.5,898 C241.566,898.794 289.115,897.466 290,901.5 C289.257,901.971 287.996,903.896 287.5,904 C285.569,904.403 262.011,903.141 257.5,903 C220.407,901.841 188.267,893.822 158.5,871 C123.947,844.509 100.391,799.199 98.5,756 Z " fill="rgb(245,175,61)"/>
<path d="M114.5,757 C116.706,756.676 125.038,794.617 127,799.5 C142.828,838.889 186.012,876.051 228.5,882 C237.114,883.206 252.858,881.391 259.5,883 C260.18,883.165 264.445,884.752 263,886.5 C199.889,895.504 136.683,847.602 119,788.5 C117.971,785.06 111.349,757.463 114.5,757 Z " fill="rgb(245,174,61)"/>
<path d="M130.5,763 C134.163,759.973 137.932,782.684 139,785.5 C150.238,815.128 174.77,845.402 204.5,858 C215.161,862.517 227.479,863.157 237,868.5 C201.924,869.81 164.401,840.575 147,811.5 C143.502,805.654 125.956,766.756 130.5,763 Z " fill="rgb(245,174,61)"/>
<path d="M876.5,764 C879.473,763.036 939.006,762.374 939,765.5 C923.078,767.141 904.42,769.123 888.5,768 C887.267,767.913 869.823,766.165 876.5,764 Z " fill="rgb(25,85,187)"/>
<path d="M592,768 C593.769,768.542 596.402,770.519 598,771 C541.124,790.913 475.738,791.994 419,771 C419.986,769.934 421.082,768.993 422,768 C477.114,785.159 537.09,786.16 592,768 Z " fill="rgb(243,193,63)"/>
<path d="M878.5,781 C882.904,780.74 939.002,779.474 939,782.5 C939,782.5 862.5,785 862.5,785 C855.095,782.598 877.272,781.073 878.5,781 Z " fill="rgb(38,90,185)"/>
<path d="M155.5,789 C168.445,805.951 177.804,821.168 195.5,834 C196.551,834.762 217.696,844.168 212.5,847 C196.109,840.39 180.072,828.279 169,814.5 C166.801,811.763 152.218,791.409 155.5,789 Z " fill="rgb(247,175,61)"/>
<path d="M848.5,799 C848.5,799 942,801.5 942,801.5 C942,801.5 848.5,803 848.5,803 C848.5,803 848.5,799 848.5,799 Z " fill="rgb(23,79,180)"/>
<path d="M829.5,817 C829.5,817 887.5,817 887.5,817 C887.5,817 943,819.5 943,819.5 C943,819.5 885.5,820 885.5,820 C885.5,820 829.5,817 829.5,817 Z " fill="rgb(37,94,187)"/>
<path d="M808.5,835 C853.288,835.978 898.296,833.022 943,836.5 C943,836.5 875.5,838 875.5,838 C875.5,838 808.5,835 808.5,835 Z " fill="rgb(29,84,185)"/>
<path d="M787.5,851 C787.5,851 943,853.5 943,853.5 C943,853.5 786.5,854 786.5,854 C786.5,854 787.5,851 787.5,851 Z " fill="rgb(39,96,188)"/>
<path d="M762.5,869 C762.5,869 944,870.5 944,870.5 C944,870.5 761.5,872 761.5,872 C761.5,872 762.5,869 762.5,869 Z " fill="rgb(34,92,191)"/>
<path d="M106.5,876 C129.216,873.602 135.07,909.605 112.5,913 C87.252,916.798 85.7066,878.195 106.5,876 Z " fill="rgb(32,79,159)"/>
<path d="M836.5,886 C867.165,885.833 897.835,886.124 928.5,886 C928.5,886 929.5,889 929.5,889 C929.5,889 735,888.5 735,888.5 C768.667,886.696 802.791,886.183 836.5,886 Z " fill="rgb(28,80,189)"/>
<path d="M961.5,892 C987.852,886.105 993.685,920.853 973.5,927 C947.832,934.817 940.471,896.704 961.5,892 Z " fill="rgb(242,179,70)"/>
<path d="M707.5,901 C707.5,901 809.5,901 809.5,901 C809.5,901 910,903.5 910,903.5 C910,903.5 807.5,904 807.5,904 C807.5,904 707.5,901 707.5,901 Z " fill="rgb(26,82,185)"/>
</svg>
